Land_normalized_Motion_pl08
version=1
nRows=12
nColumns=43
inDegrees=yes
endheader
time		pelvis_tilt		pelvis_list		pelvis_rotation		pelvis_tx		pelvis_ty		pelvis_tz		hip_flexion_r		hip_adduction_r		hip_rotation_r		knee_angle_r		ankle_angle_r		subtalar_angle_r		mtp_angle_r		hip_flexion_l		hip_adduction_l		hip_rotation_l		knee_angle_l		ankle_angle_l		subtalar_angle_l		mtp_angle_l		lumbar_extension		lumbar_bending		lumbar_rotation		neck_flexion		neck_lateral_bending		neck_rotation		arm_flex_r		arm_add_r		arm_rot_r		elbow_flex_r		pro_sup_r		wrist_flex_r		wrist_dev_r		hand_finger_flex_r		arm_flex_l		arm_add_l		arm_rot_l		elbow_flex_l		pro_sup_l		wrist_flex_l		wrist_dev_l		hand_finger_flex_l		
0.864167		-0.910148		7.381413		91.589259		0.014512		0.454347		0.435744		92.794679		-0.895445		3.868743		-135.787273		21.378961		1.152094		15.741021		91.351719		-5.709351		5.532858		-135.621512		19.420603		17.416636		29.589347		-58.450507		-2.806586		0.645068		24.158118		4.012232		-3.793049		58.948439		-42.294424		14.355658		78.340826		104.150070		-8.523926		-21.557657		3.994638		50.027951		-27.202326		5.426394		67.427698		123.095929		-36.037010		-10.707280		7.820209		
0.867374		-0.894315		7.422920		91.561478		0.014624		0.450715		0.434958		92.976838		-1.038808		3.890504		-136.251007		22.310963		1.813433		15.481943		91.795857		-5.966013		5.659886		-136.164187		19.557081		18.025621		29.492016		-58.741112		-2.768287		0.670117		24.399359		3.726172		-3.954141		61.147085		-42.320200		15.695950		77.982641		103.525030		-8.527170		-21.424579		3.989718		51.785361		-27.443795		6.069839		67.175888		122.889904		-36.321918		-10.768045		7.570793		
0.870581		-0.956112		7.300664		91.565210		0.014884		0.447080		0.434142		93.358272		-1.188972		3.906720		-136.708579		22.949404		1.934963		15.311677		92.390741		-6.207282		5.706034		-136.661346		19.662288		18.372058		29.451659		-58.902874		-2.852563		0.632742		24.910026		3.776495		-4.026591		62.892498		-42.189610		16.384031		77.747552		103.263755		-8.489608		-21.361082		3.918635		53.536214		-27.671170		6.617029		67.053012		122.838648		-36.225695		-10.906578		7.536442		
0.873788		-0.999251		7.306910		91.548845		0.015170		0.443709		0.433329		93.594949		-1.356367		3.872874		-137.166029		23.591770		2.186724		15.010312		92.834781		-6.490630		5.811322		-137.150607		19.752463		18.928075		29.400141		-59.164338		-2.902337		0.608855		25.263931		3.655543		-4.144615		64.777804		-42.027366		17.274588		77.385812		102.878288		-8.506785		-21.327943		3.703060		55.273945		-27.883115		7.186277		66.854663		122.632265		-36.313426		-11.016319		7.443351		
0.876995		-1.083397		7.259085		91.558047		0.015514		0.440424		0.432526		93.906455		-1.565702		3.822342		-137.615993		24.122703		2.233216		14.886707		93.309521		-6.778378		5.840204		-137.599983		19.815793		19.332534		29.399851		-59.383049		-2.999930		0.565854		25.657727		3.644807		-4.298249		66.470686		-41.857731		17.868611		77.110778		102.862334		-8.369952		-21.264474		3.589174		57.010201		-28.110812		7.771900		66.741600		122.622673		-36.132996		-11.089436		7.476875		
0.880202		-1.172946		7.261157		91.570451		0.015887		0.437316		0.431717		94.191159		-1.749969		3.782577		-138.087064		24.579920		2.308468		14.747433		93.701505		-7.040792		5.917936		-138.034178		19.906367		19.840656		29.414979		-59.632941		-3.089735		0.494518		26.012734		3.596726		-4.459524		68.175021		-41.611912		18.482507		76.760657		102.869565		-8.284261		-21.205631		3.415049		58.741816		-28.333517		8.374561		66.586464		122.543090		-36.027085		-11.078561		7.486585		
0.883409		-1.264312		7.263022		91.599275		0.016295		0.434407		0.430927		94.488467		-1.955688		3.727828		-138.537606		24.905529		2.361423		14.631406		94.059738		-7.306271		5.983765		-138.428544		20.004670		20.302821		29.437033		-59.882178		-3.181636		0.403509		26.361174		3.575419		-4.592917		69.763960		-41.282527		18.930665		76.407708		102.908050		-8.262702		-21.136057		3.250154		60.439495		-28.473487		8.879140		66.436194		122.433105		-35.944176		-11.006500		7.490670		
0.886616		-1.337678		7.371857		91.637206		0.016719		0.431681		0.430136		94.690453		-2.165340		3.661461		-138.997804		25.193344		2.478074		14.396370		94.294778		-7.576180		6.165565		-138.817843		20.154318		21.137591		29.474890		-60.206398		-3.232188		0.293375		26.556875		3.468947		-4.716602		71.484892		-40.961396		19.657085		75.931314		102.963641		-8.390633		-21.147808		2.949505		62.165870		-28.718108		9.633149		66.221475		122.029097		-36.186945		-10.796254		7.404988		
0.889823		-1.449314		7.351256		91.728128		0.017090		0.428949		0.429403		95.054541		-2.403044		3.652234		-139.443171		25.454018		2.518878		14.193675		94.644670		-7.761970		6.261971		-139.163991		20.263463		21.753094		29.501320		-60.422639		-3.297258		0.106985		26.852626		3.515613		-4.833140		73.078716		-40.664749		20.259660		75.540369		103.026355		-8.431445		-21.125200		2.751108		63.911298		-29.060396		10.469350		66.014370		121.790009		-36.222456		-10.763102		7.418215		
0.893030		-1.530695		7.368544		91.811947		0.017448		0.426449		0.428632		95.387085		-2.675329		3.580796		-139.860456		25.564975		2.565354		14.104649		94.936603		-8.000531		6.335200		-139.490193		20.333909		22.211171		29.534320		-60.661974		-3.348502		-0.020822		27.190529		3.551444		-4.928366		74.454706		-40.225130		20.501788		75.165172		103.070666		-8.480779		-21.056629		2.659110		65.576663		-29.051409		10.915547		65.706246		121.613477		-36.263796		-10.699749		7.424061		
0.896237		-1.620685		7.508778		91.935665		0.017769		0.424069		0.427895		95.603974		-2.933424		3.605240		-140.299253		25.692984		2.681906		13.852671		95.097333		-8.171486		6.594401		-139.813011		20.435509		23.357851		29.614318		-60.986447		-3.355483		-0.192058		27.261131		3.529956		-5.075505		76.131793		-39.977293		21.339516		74.619367		103.126111		-8.594628		-21.152864		2.463304		67.467426		-29.431677		12.187493		65.192197		121.098922		-36.789946		-10.709156		7.411450		
0.899444		-1.735741		7.525245		92.085603		0.018023		0.421742		0.427163		95.970641		-3.241376		3.624847		-140.708409		25.719480		2.726129		13.753690		95.362717		-8.315709		6.688537		-140.100767		20.451772		23.962715		29.676398		-61.211163		-3.381978		-0.387240		27.526676		3.625353		-5.199586		77.510173		-39.618276		21.703039		74.215004		103.135126		-8.560424		-21.128734		2.417874		69.239688		-29.590303		13.014292		64.732562		120.946728		-36.867845		-10.812786		7.546710		
